<svg xmlns="http://www.w3.org/2000/svg" width="36" height="36" viewBox="0 0 36 36">
  <path id="add-contact" d="M22.678,6.2l1.988-1.989L28.18,7.722l5.833-5.836L36,3.875,28.18,11.7Zm11.169,3.811A18.093,18.093,0,1,1,23.511,1.385l-2.3,2.3A15.181,15.181,0,0,0,6.584,28.534a11.737,11.737,0,0,1,6.706-8.153,6.982,6.982,0,1,1,9.4,0A11.737,11.737,0,0,1,29.4,28.534a15.167,15.167,0,0,0,2.351-16.426ZM17.99,19.393a4.173,4.173,0,1,0-4.171-4.173A4.177,4.177,0,0,0,17.99,19.393Zm0,14.319a15.091,15.091,0,0,0,8.872-2.872,8.875,8.875,0,0,0-17.744,0A15.09,15.09,0,0,0,17.99,33.712Zm0,0" transform="translate(0 -0.5)"/>
</svg>
