<svg xmlns="http://www.w3.org/2000/svg" width="36" height="36" viewBox="0 0 36 36">
  <g id="edit_1_" data-name="edit (1)" transform="translate(0 -0.001)">
    <path id="Path_1838" data-name="Path 1838" d="M28.5,16A1.5,1.5,0,0,0,27,17.5v12A1.5,1.5,0,0,1,25.5,31H4.5A1.5,1.5,0,0,1,3,29.5V8.5A1.5,1.5,0,0,1,4.5,7h12a1.5,1.5,0,0,0,0-3H4.5A4.506,4.506,0,0,0,0,8.5v21A4.506,4.506,0,0,0,4.5,34h21A4.506,4.506,0,0,0,30,29.5v-12A1.5,1.5,0,0,0,28.5,16Z" transform="translate(0 2)" fill="#fd7e14"/>
    <path id="Path_1839" data-name="Path 1839" d="M9.8,15.045a.759.759,0,0,0-.206.383l-1.06,5.3a.75.75,0,0,0,.736.9.709.709,0,0,0,.147-.015l5.3-1.061a.746.746,0,0,0,.384-.206L26.975,8.48l-5.3-5.3Z" transform="translate(4.261 1.588)" fill="#fd7e14"/>
    <path id="Path_1840" data-name="Path 1840" d="M25.728,1.1a3.753,3.753,0,0,0-5.3,0L18.349,3.174l5.3,5.3L25.728,6.4a3.75,3.75,0,0,0,0-5.3Z" transform="translate(9.174)" fill="#fd7e14"/>
  </g>
</svg>
