<svg width="37" height="37" xmlns="http://www.w3.org/2000/svg" xmlns:xlink="http://www.w3.org/1999/xlink" xmlns:svgjs="http://svgjs.com/svgjs"><svg xmlns="http://www.w3.org/2000/svg" width="37" height="37" viewBox="1 1 36 36"><path paint-order="stroke fill markers" fill-rule="evenodd" d="M36.989 6.815c.01-.027-.011-.055-.011-.083V1.923c.022-.49-.43-.905-1.012-.923h-.032H2.049c-.57 0-1.044.406-1.034.895V6.733c0 .027-.021.055-.01.082 0 .01-.011.028 0 .037v.046c0 .019 0 .028.01.046.01.019.01.028.01.037 0 .01.012.028.012.046 0 .01.01.028.01.037.011.019.011.028.022.047.01.009.01.027.022.036.01.01.01.028.021.037.01.01.021.028.021.037 0 .01.022.028.022.037.011.01.022.028.033.037.01.01.02.019.02.028 0 0 .023 0 .034.01l12.91 13.015v15.729c-.011.35.215.674.591.83.14.056.291.093.453.093.248 0 .484-.074.668-.203l7.601-5.29a.847.847 0 0 0 .377-.72v-10.44l12.9-13.015s.01 0 .02-.009l.033-.028c.01-.009.021-.027.033-.037.01-.009.02-.027.032-.037.01-.009.021-.027.021-.037.01-.009.022-.027.022-.037.01-.009.01-.027.021-.036.011-.019.011-.028.022-.047.01-.009.01-.027.01-.037.011-.018.011-.027.011-.046 0-.018.011-.027.011-.037 0-.009.011-.027.011-.046 0-.018.01-.037.01-.046 0-.01-.021-.027-.01-.037zm-15.02 12.591a.891.891 0 0 0-.28.6v10.339l-5.384 3.793V20.006a.892.892 0 0 0-.28-.6L4.375 7.646h29.244l-11.65 11.76zM34.825 5.8H3.168V2.846h31.657V5.8z"/></svg></svg>