<svg xmlns="http://www.w3.org/2000/svg" width="30.302" height="32.067" viewBox="0 0 30.302 32.067">
  <g id="note" transform="translate(-30 -27.375)">
    <path id="Path_1768" data-name="Path 1768" d="M172.6,180.841h10.052a.421.421,0,0,0,0-.841H172.6a.421.421,0,0,0,0,.841Z" transform="translate(-132.67 -141.93)" fill="#176e98"/>
    <path id="Path_1769" data-name="Path 1769" d="M90.576,183.342l-.893.893-.362-.379a.39.39,0,0,0-.569,0,.434.434,0,0,0,0,.595l.64.67a.39.39,0,0,0,.562.007l1.178-1.177a.434.434,0,0,0,.013-.594.39.39,0,0,0-.569-.013Z" transform="translate(-54.705 -144.93)" fill="#176e98"/>
    <path id="Path_1770" data-name="Path 1770" d="M70.207,156.9a2.856,2.856,0,1,0,2.729,2.853A2.793,2.793,0,0,0,70.207,156.9Zm0,4.866a2.015,2.015,0,1,1,1.925-2.013,1.97,1.97,0,0,1-1.925,2.013Z" transform="translate(-34.966 -120.449)" fill="#176e98"/>
    <path id="Path_1771" data-name="Path 1771" d="M172.6,280.841h10.052a.421.421,0,0,0,0-.841H172.6a.421.421,0,0,0,0,.841Z" transform="translate(-132.67 -234.923)" fill="#176e98"/>
    <path id="Path_1772" data-name="Path 1772" d="M90.576,283.342l-.893.893-.362-.379a.39.39,0,0,0-.569,0,.434.434,0,0,0,0,.595l.64.67a.39.39,0,0,0,.562.007l1.178-1.177a.434.434,0,0,0,.013-.594.39.39,0,0,0-.569-.013Z" transform="translate(-54.705 -237.922)" fill="#176e98"/>
    <path id="Path_1773" data-name="Path 1773" d="M70.207,256.9a2.856,2.856,0,1,0,2.729,2.853A2.793,2.793,0,0,0,70.207,256.9Zm0,4.866a2.015,2.015,0,1,1,1.925-2.013,1.97,1.97,0,0,1-1.925,2.013Z" transform="translate(-34.966 -213.442)" fill="#176e98"/>
    <path id="Path_1774" data-name="Path 1774" d="M90.576,383.342l-.893.893-.362-.379a.39.39,0,0,0-.569,0,.434.434,0,0,0,0,.595l.64.67a.39.39,0,0,0,.562.007l1.178-1.177a.434.434,0,0,0,.013-.594.39.39,0,0,0-.569-.013Z" transform="translate(-54.705 -330.915)" fill="#176e98"/>
    <path id="Path_1775" data-name="Path 1775" d="M70.207,356.9a2.856,2.856,0,1,0,2.729,2.853A2.793,2.793,0,0,0,70.207,356.9Zm0,4.866a2.015,2.015,0,1,1,1.925-2.013,1.97,1.97,0,0,1-1.925,2.013Z" transform="translate(-34.966 -306.434)" fill="#176e98"/>
    <path id="Path_1776" data-name="Path 1776" d="M172.6,200.841h5.361a.421.421,0,0,0,0-.841H172.6a.421.421,0,0,0,0,.841Z" transform="translate(-132.67 -160.529)" fill="#176e98"/>
    <path id="Path_1777" data-name="Path 1777" d="M172.6,300.841h5.361a.421.421,0,0,0,0-.841H172.6a.421.421,0,0,0,0,.841Z" transform="translate(-132.67 -253.521)" fill="#176e98"/>
    <path id="Path_1778" data-name="Path 1778" d="M53.4,94.1a.412.412,0,0,0-.4.42v.441a.4.4,0,1,0,.8,0V94.52A.412.412,0,0,0,53.4,94.1Z" transform="translate(-21.459 -62.049)" fill="#176e98"/>
    <path id="Path_1779" data-name="Path 1779" d="M53.4,119.391a.412.412,0,0,0-.4.42v4.064a.4.4,0,1,0,.8,0v-4.064A.412.412,0,0,0,53.4,119.391Z" transform="translate(-21.459 -85.568)" fill="#176e98"/>
    <path id="Path_1780" data-name="Path 1780" d="M58.634,44.215a2,2,0,0,0-1.573.314l-4.142,2.844V31.6A2.458,2.458,0,0,0,50.5,29.1H47.96V27.8a.4.4,0,1,0-.8,0V29.1H43.738V27.8a.4.4,0,1,0-.8,0V29.1H39.583V27.8a.4.4,0,1,0-.8,0V29.1H35.361V27.8a.4.4,0,1,0-.8,0V29.1H32.4a2.332,2.332,0,0,0-1.7.725A2.552,2.552,0,0,0,30,31.6v25.3a2.487,2.487,0,0,0,2.4,2.549H50.5a2.5,2.5,0,0,0,2.424-2.549V52.607l6.439-4.422a2.231,2.231,0,0,0,.906-2.238,2.144,2.144,0,0,0-1.631-1.732Zm-11.1-12.482a.744.744,0,1,1-.711.743A.728.728,0,0,1,47.535,31.733Zm-4.19,0a.744.744,0,1,1-.711.743A.728.728,0,0,1,43.345,31.733Zm-4.19,0a.744.744,0,1,1-.711.744A.728.728,0,0,1,39.155,31.733Zm-4.19,0a.744.744,0,1,1-.711.743.728.728,0,0,1,.711-.743Zm17.15,25.16A1.681,1.681,0,0,1,50.5,58.6H32.4a1.663,1.663,0,0,1-1.6-1.708V31.6a1.69,1.69,0,0,1,.468-1.177,1.544,1.544,0,0,1,1.13-.478h2.156V30.95a1.622,1.622,0,0,0-1.11,1.528,1.516,1.516,0,1,0,1.914-1.528V29.941h3.418V30.95a1.575,1.575,0,1,0,1.908,1.528,1.617,1.617,0,0,0-1.1-1.528V29.941h3.351V30.95a1.621,1.621,0,0,0-1.109,1.528,1.516,1.516,0,1,0,1.913-1.528V29.941h3.418V30.95a1.575,1.575,0,1,0,1.909,1.528,1.618,1.618,0,0,0-1.1-1.528V29.941H50.5A1.634,1.634,0,0,1,52.115,31.6V47.925L50.6,48.962a.422.422,0,0,0-.176.283.435.435,0,0,0,.079.327h0a.39.39,0,0,0,.538.093l5.979-4.105.486.774L47.382,53.29l-.486-.774,1.9-1.307a.432.432,0,0,0,.115-.582.392.392,0,0,0-.557-.121L46.12,52.042l-.012.009-.03.024-.009.009H39.932a.421.421,0,0,0,0,.841h5.684l-.285.563-.038,0H39.932a.421.421,0,0,0,0,.841h4.974l-.465.918a.437.437,0,0,0,.011.413.4.4,0,0,0,.344.2h.011l3.4-.093.025,0,.026,0,.031-.007.023-.006a.388.388,0,0,0,.051-.02l.012-.007.038-.022,0,0,3.7-2.541Zm-4.654-1.945L45.474,55l.9-1.783Zm.848-.182-.031-.049-.456-.725,10.13-6.956.486.774ZM59.1,47.33l-1.391-2.214a1.246,1.246,0,0,1,1.077.034,1.149,1.149,0,0,1,.266.186A1.393,1.393,0,0,1,59.1,47.33Z" transform="translate(0)" fill="#176e98"/>
  </g>
</svg>
