<svg xmlns="http://www.w3.org/2000/svg" width="58.63" height="36" viewBox="0 0 58.63 36">
  <g id="pay-per-click" transform="translate(0 -117)">
    <path id="Path_1843" data-name="Path 1843" d="M51.187,117H7.443C3.339,117,0,120.776,0,125.417v19.165C0,149.224,3.339,153,7.443,153H51.187c4.1,0,7.443-3.776,7.443-8.417V125.417C58.63,120.776,55.291,117,51.187,117Zm4.008,27.583a4.3,4.3,0,0,1-4.008,4.532H7.443a4.3,4.3,0,0,1-4.008-4.532V125.417a4.3,4.3,0,0,1,4.008-4.532H51.187a4.3,4.3,0,0,1,4.008,4.532Z" transform="translate(0 0)" fill="#979a9b"/>
    <path id="Path_1844" data-name="Path 1844" d="M193.617,198.809h5.5l1.276,3.823h3.672l-6.22-18.639-2.919,0-6.276,18.636h3.676Zm2.765-8.209,1.443,4.324h-2.9Z" transform="translate(-167.05 -58.318)" fill="#979a9b"/>
    <path id="Path_1845" data-name="Path 1845" d="M307.615,189.584l-3.24-5.611h-4.1l5.626,9.743-.019,8.9,3.435.009.019-8.909,5.61-9.746h-4.1Z" transform="translate(-265.887 -58.3)" fill="#979a9b"/>
    <path id="Path_1846" data-name="Path 1846" d="M111.826,190.109c0-3.368-2.455-6.108-5.474-6.108H101v18.647h3.435v-6.423c.71,0,1.473-.008,1.917-.008C109.37,196.217,111.826,193.477,111.826,190.109Zm-7.385-2.223h1.912a2.232,2.232,0,0,1,0,4.447c-.443,0-1.2,0-1.9.008C104.448,191.513,104.443,188.75,104.44,187.885Z" transform="translate(-89.434 -58.324)" fill="#979a9b"/>
  </g>
</svg>
