<svg xmlns="http://www.w3.org/2000/svg" width="36" height="44" viewBox="0 0 36 44">
  <g id="bill" transform="translate(-88 -8)">
    <path id="Path_1755" data-name="Path 1755" d="M123.143,8H88.857A.794.794,0,0,0,88,8.71V51.29a.794.794,0,0,0,.857.71h34.286a.794.794,0,0,0,.857-.71V8.71A.794.794,0,0,0,123.143,8Zm-.857,42.581H89.714V9.419h32.571Z" transform="translate(0)" fill="#FFFFFF"/>
    <path id="Path_1756" data-name="Path 1756" d="M305.429,40h-8.571a.794.794,0,0,0-.857.71v7.1a.794.794,0,0,0,.857.71h8.571a.794.794,0,0,0,.857-.71v-7.1A.794.794,0,0,0,305.429,40Zm-5.143,1.419H302v1.419h-1.714Zm4.286,5.677h-6.857V41.419h.857v2.129a.794.794,0,0,0,.857.71h3.429a.794.794,0,0,0,.857-.71V41.419h.857Z" transform="translate(-185.714 -29.161)" fill="#FFFFFF"/>
    <path id="Path_1757" data-name="Path 1757" d="M112.857,168.516a.722.722,0,1,0,0,1.419H142a.722.722,0,1,0,0-1.419H121.429v-7.1H142A.722.722,0,1,0,142,160H112.857a.722.722,0,1,0,0,1.419h6.857v7.1Z" transform="translate(-21.429 -138.516)" fill="#FFFFFF"/>
    <path id="Path_1758" data-name="Path 1758" d="M112.857,289.419H142A.722.722,0,1,0,142,288H112.857a.722.722,0,1,0,0,1.419Z" transform="translate(-21.429 -255.161)" fill="#FFFFFF"/>
    <path id="Path_1759" data-name="Path 1759" d="M112.857,321.419H142A.722.722,0,1,0,142,320H112.857a.722.722,0,1,0,0,1.419Z" transform="translate(-21.429 -284.323)" fill="#FFFFFF"/>
    <path id="Path_1760" data-name="Path 1760" d="M120.857,49.419h6a.722.722,0,1,0,0-1.419h-6a.722.722,0,1,0,0,1.419Z" transform="translate(-28.571 -36.452)" fill="#FFFFFF"/>
    <path id="Path_1761" data-name="Path 1761" d="M120.857,73.419h2.571a.722.722,0,1,0,0-1.419h-2.571a.722.722,0,1,0,0,1.419Z" transform="translate(-28.571 -58.323)" fill="#FFFFFF"/>
    <path id="Path_1762" data-name="Path 1762" d="M131.143,352H120.857a.722.722,0,1,0,0,1.419h10.286a.722.722,0,1,0,0-1.419Z" transform="translate(-28.571 -313.484)" fill="#FFFFFF"/>
    <path id="Path_1763" data-name="Path 1763" d="M124.286,376h-3.429a.722.722,0,1,0,0,1.419h3.429a.722.722,0,1,0,0-1.419Z" transform="translate(-28.571 -335.355)" fill="#FFFFFF"/>
    <path id="Path_1764" data-name="Path 1764" d="M177.714,376h-.857a.722.722,0,1,0,0,1.419h.857a.722.722,0,1,0,0-1.419Z" transform="translate(-78.571 -335.355)" fill="#FFFFFF"/>
    <path id="Path_1765" data-name="Path 1765" d="M291.143,432H280.857a.722.722,0,1,0,0,1.419h10.286a.722.722,0,1,0,0-1.419Z" transform="translate(-171.429 -386.387)" fill="#FFFFFF"/>
    <path id="Path_1766" data-name="Path 1766" d="M316.286,456h-3.429a.722.722,0,1,0,0,1.419h3.429a.722.722,0,1,0,0-1.419Z" transform="translate(-200 -408.258)" fill="#FFFFFF"/>
    <path id="Path_1767" data-name="Path 1767" d="M369.714,456h-.857a.722.722,0,1,0,0,1.419h.857a.722.722,0,1,0,0-1.419Z" transform="translate(-250 -408.258)" fill="#FFFFFF"/>
  </g>
</svg>
