<svg xmlns="http://www.w3.org/2000/svg" width="36" height="38.561" viewBox="0 0 36 38.561">
  <g id="dashboard" transform="translate(-1 -1)">
    <path id="Path_1786" data-name="Path 1786" d="M33.516,21.854V9.658A4.271,4.271,0,0,0,37,5.354a4.074,4.074,0,1,0-8.129,0H1V30.232H18.449c.3,5.2,4.335,9.329,9.261,9.329,5.122,0,9.29-4.464,9.29-9.951A10.207,10.207,0,0,0,33.516,21.854Zm-.581-19.61a3.015,3.015,0,0,1,2.9,3.11,2.91,2.91,0,1,1-5.806,0A3.015,3.015,0,0,1,32.935,2.244ZM2.161,6.6H29.042a4.475,4.475,0,0,0,.643,1.359l-3.551,3.8a1.582,1.582,0,0,0-1.493,0l-1.17-1.253a1.957,1.957,0,0,0,.174-.8,1.746,1.746,0,1,0-3.484,0,1.943,1.943,0,0,0,.175.8l-2.912,3.119a1.632,1.632,0,0,0-.747-.187A1.87,1.87,0,1,0,18.419,15.3a1.943,1.943,0,0,0-.175-.8l2.912-3.119a1.584,1.584,0,0,0,1.493,0l1.17,1.253a1.957,1.957,0,0,0-.174.8,1.746,1.746,0,1,0,3.484,0,1.943,1.943,0,0,0-.175-.8l3.552-3.8a3.9,3.9,0,0,0,1.849.822V21.006a8.755,8.755,0,0,0-4.645-1.347,9.013,9.013,0,0,0-6.968,3.392v-2.77H17.258v7.463h1.331a10.656,10.656,0,0,0-.14,1.244H2.161Zm23.226,6.22a.623.623,0,1,1-.581.622A.6.6,0,0,1,25.387,12.817Zm-4.065-3.11a.582.582,0,1,1,.581.622A.6.6,0,0,1,21.323,9.707Zm-4.065,5.6a.582.582,0,1,1-.581-.622A.6.6,0,0,1,17.258,15.3ZM27.71,34.585a4.825,4.825,0,0,1-4.645-4.976,4.825,4.825,0,0,1,4.645-4.976,4.825,4.825,0,0,1,4.645,4.976A4.825,4.825,0,0,1,27.71,34.585ZM19.581,24.8a10.253,10.253,0,0,0-.69,1.7h-.471V21.524h1.161Zm7.548-3.869v2.488A6.083,6.083,0,0,0,21.9,29.61a6.551,6.551,0,0,0,.517,2.552l-2.014,1.246a9.141,9.141,0,0,1-.826-3.8,8.488,8.488,0,0,1,7.548-8.676Zm.581,17.383a7.994,7.994,0,0,1-6.729-3.828L23,33.238a5.569,5.569,0,0,0,9.412,0l2.022,1.251A7.994,7.994,0,0,1,27.71,38.317Zm7.3-4.909L33,32.162a6.551,6.551,0,0,0,.517-2.552,6.083,6.083,0,0,0-5.226-6.188V20.934a8.488,8.488,0,0,1,7.548,8.676A9.141,9.141,0,0,1,35.013,33.408Z" fill="#176e98"/>
    <path id="Path_1787" data-name="Path 1787" d="M44.484,41a3.741,3.741,0,1,0,3.484,3.732A3.618,3.618,0,0,0,44.484,41Zm0,6.22a2.494,2.494,0,1,1,2.323-2.488A2.412,2.412,0,0,1,44.484,47.22Z" transform="translate(-16.774 -15.122)" fill="#176e98"/>
    <path id="Path_1788" data-name="Path 1788" d="M5,12H6.161v1.244H5Z" transform="translate(-1.677 -4.159)" fill="#176e98"/>
    <path id="Path_1789" data-name="Path 1789" d="M9,12h8.129v1.244H9Z" transform="translate(-3.355 -4.159)" fill="#176e98"/>
    <path id="Path_1790" data-name="Path 1790" d="M5,16H6.161v1.244H5Z" transform="translate(-1.677 -5.671)" fill="#176e98"/>
    <path id="Path_1791" data-name="Path 1791" d="M9,16h8.129v1.244H9Z" transform="translate(-3.355 -5.671)" fill="#176e98"/>
    <path id="Path_1792" data-name="Path 1792" d="M5,20H6.161v1.244H5Z" transform="translate(-1.677 -7.183)" fill="#176e98"/>
    <path id="Path_1793" data-name="Path 1793" d="M9,20h8.129v1.244H9Z" transform="translate(-3.355 -7.183)" fill="#176e98"/>
    <path id="Path_1794" data-name="Path 1794" d="M5,24H6.161v1.244H5Z" transform="translate(-1.677 -8.695)" fill="#176e98"/>
    <path id="Path_1795" data-name="Path 1795" d="M9,24h8.129v1.244H9Z" transform="translate(-3.355 -8.695)" fill="#176e98"/>
    <path id="Path_1796" data-name="Path 1796" d="M5,40.22H8.484V34H5Zm1.161-4.976H7.323v3.732H6.161Z" transform="translate(-1.677 -12.476)" fill="#176e98"/>
    <path id="Path_1797" data-name="Path 1797" d="M13,40.976h3.484V36H13Zm1.161-3.732h1.161v2.488H14.161Z" transform="translate(-5.032 -13.232)" fill="#176e98"/>
    <path id="Path_1798" data-name="Path 1798" d="M21,37.951h3.484V28H21Zm1.161-8.707h1.161v7.463H22.161Z" transform="translate(-8.387 -10.207)" fill="#176e98"/>
  </g>
</svg>
