<svg xmlns="http://www.w3.org/2000/svg" width="40" height="42.001" viewBox="0 0 40 42.001">
  <g id="Page-1" transform="translate(0.001 -0.001)">
    <g id="_015---Financial-Profit" data-name="015---Financial-Profit" transform="translate(-0.001 0.001)">
      <path id="Shape" d="M3,22.4a1.949,1.949,0,0,0,1.415-.614L7.67,18.379,9.312,20.1a3.222,3.222,0,0,0,4.716,0L23.809,9.83l2.975,3.125a3.226,3.226,0,0,0,4.717,0l5.955-6.261.495.519A1.54,1.54,0,0,0,39.63,7.6a1.665,1.665,0,0,0,1.035-1.443L41,1.647V1.64A1.578,1.578,0,0,0,40.575.451,1.422,1.422,0,0,0,39.443,0l-4.3.35a1.6,1.6,0,0,0-1.375,1.082A1.729,1.729,0,0,0,34.136,3.2l.495.521-5.49,5.768L26.167,6.363a3.222,3.222,0,0,0-4.716,0L11.67,16.638l-1.641-1.727a3.226,3.226,0,0,0-4.717,0L1.6,18.824a2.172,2.172,0,0,0-.435,2.282A2,2,0,0,0,3,22.4Zm-.467-2.59L6.256,15.9a1.933,1.933,0,0,1,2.83,0l2.113,2.22a.644.644,0,0,0,.943,0L22.394,7.351a1.979,1.979,0,0,1,2.831,0L28.2,10.476a1.319,1.319,0,0,0,1.886,0l5.961-6.262a.725.725,0,0,0,0-.989l-.969-1.017a.259.259,0,0,1-.058-.28.254.254,0,0,1,.227-.179l4.3-.348a.113.113,0,0,1,.089.038.136.136,0,0,1,.039.1l-.333,4.508a.272.272,0,0,1-.169.237.252.252,0,0,1-.275-.063l-.966-1.016a.663.663,0,0,0-.943,0l-6.426,6.757a1.982,1.982,0,0,1-2.83,0L24.752,8.84a1.287,1.287,0,0,0-1.885,0L13.086,19.115a1.979,1.979,0,0,1-2.831,0L8.613,17.389a1.289,1.289,0,0,0-1.885,0L3.473,20.8a.649.649,0,0,1-.94,0,.707.707,0,0,1,0-.98Z" transform="translate(-1.003 -0.001)" fill="#176e98 "/>
      <path id="Shape-2" data-name="Shape" d="M34.333,34.994a6.932,6.932,0,0,0-5.246-6.853A6.587,6.587,0,0,0,21.6,32.079a7.22,7.22,0,0,0,2.083,8.516h-.017a1.989,1.989,0,0,0-1.829,1.242,2.172,2.172,0,0,0,.349,2.258,2.145,2.145,0,0,0,0,2.8,2.172,2.172,0,0,0-.349,2.258,1.989,1.989,0,0,0,1.829,1.242h8a1.989,1.989,0,0,0,1.829-1.242,2.172,2.172,0,0,0-.349-2.258,2.145,2.145,0,0,0,0-2.8,2.172,2.172,0,0,0,.349-2.258,1.989,1.989,0,0,0-1.829-1.242h-.017A7.109,7.109,0,0,0,34.333,34.994Zm-2,10.5a.684.684,0,0,1-.667.7h-8a.7.7,0,0,1,0-1.4h8A.684.684,0,0,1,32.333,45.495Zm-.667,3.5h-8a.7.7,0,0,1,0-1.4h8a.7.7,0,0,1,0,1.4Zm0-7a.7.7,0,0,1,0,1.4h-8a.7.7,0,0,1,0-1.4Zm-9.333-7a5.34,5.34,0,1,1,5.333,5.6A5.472,5.472,0,0,1,22.333,34.994Z" transform="translate(-7.666 -8.394)" fill="#176e98 "/>
      <path id="Path" d="M30,35.5a.677.677,0,0,1-.656-.579.705.705,0,0,1,.429-.779.652.652,0,0,1,.805.308.652.652,0,0,0,1.168.012.73.73,0,0,0-.014-.712,2.024,2.024,0,0,0-1.065-.91V32.7a.667.667,0,1,0-1.333,0v.129a2.109,2.109,0,0,0-1.3,2.331A2.026,2.026,0,0,0,30,36.9a.677.677,0,0,1,.656.579.705.705,0,0,1-.429.779.652.652,0,0,1-.805-.308.649.649,0,0,0-.9-.238.719.719,0,0,0-.254.938,2.023,2.023,0,0,0,1.067.91v.14a.667.667,0,1,0,1.333,0v-.129a2.109,2.109,0,0,0,1.3-2.332A2.026,2.026,0,0,0,30,35.5Z" transform="translate(-10 -9.6)" fill="#176e98 " fill-rule="evenodd"/>
      <path id="Shape-3" data-name="Shape" d="M47.667,20a6.7,6.7,0,0,0-6.327,4.789A7.2,7.2,0,0,0,43.683,32.6h-.017a1.989,1.989,0,0,0-1.829,1.242,2.172,2.172,0,0,0,.349,2.258,2.145,2.145,0,0,0,0,2.8,2.145,2.145,0,0,0,0,2.8,2.145,2.145,0,0,0,0,2.8,2.172,2.172,0,0,0-.349,2.258A1.989,1.989,0,0,0,43.667,48h8A1.989,1.989,0,0,0,53.5,46.759a2.172,2.172,0,0,0-.349-2.258,2.145,2.145,0,0,0,0-2.8,2.145,2.145,0,0,0,0-2.8,2.145,2.145,0,0,0,0-2.8,2.172,2.172,0,0,0,.349-2.258A1.989,1.989,0,0,0,51.666,32.6h-.017a7.2,7.2,0,0,0,2.345-7.812A6.694,6.694,0,0,0,47.667,20Zm4.667,17.5a.684.684,0,0,1-.667.7h-8a.7.7,0,0,1,0-1.4h8A.684.684,0,0,1,52.333,37.5Zm0,2.8a.684.684,0,0,1-.667.7h-8a.7.7,0,0,1,0-1.4h8A.684.684,0,0,1,52.333,40.3Zm0,2.8a.684.684,0,0,1-.667.7h-8a.7.7,0,0,1,0-1.4h8A.684.684,0,0,1,52.333,43.1Zm-.667,3.5h-8a.7.7,0,0,1,0-1.4h8a.7.7,0,0,1,0,1.4Zm0-12.6a.7.7,0,0,1,0,1.4h-8a.7.7,0,0,1,0-1.4Zm-4-1.4A5.607,5.607,0,1,1,53,27,5.472,5.472,0,0,1,47.667,32.6Z" transform="translate(-14.334 -6)" fill="#176e98 "/>
      <path id="Path-2" data-name="Path" d="M50,27.5a.677.677,0,0,1-.656-.579.705.705,0,0,1,.429-.779.652.652,0,0,1,.805.308.649.649,0,0,0,.9.238.719.719,0,0,0,.254-.938,2.019,2.019,0,0,0-1.065-.91V24.7a.667.667,0,1,0-1.333,0v.129a2.109,2.109,0,0,0-1.3,2.331A2.026,2.026,0,0,0,50,28.9a.677.677,0,0,1,.656.579.705.705,0,0,1-.429.779.652.652,0,0,1-.805-.308.649.649,0,0,0-.9-.238.719.719,0,0,0-.254.938,2.019,2.019,0,0,0,1.067.91v.14a.667.667,0,1,0,1.333,0v-.129a2.109,2.109,0,0,0,1.3-2.332A2.026,2.026,0,0,0,50,27.5Z" transform="translate(-16.667 -7.2)" fill="#176e98 " fill-rule="evenodd"/>
      <path id="Shape-4" data-name="Shape" d="M3.683,48.595H3.666a2.1,2.1,0,0,0,0,4.2h8a2.1,2.1,0,0,0,0-4.2H11.65a7.2,7.2,0,0,0,2.344-7.817,6.7,6.7,0,0,0-6.328-4.8,6.7,6.7,0,0,0-6.328,4.8A7.2,7.2,0,0,0,3.683,48.595Zm7.983,1.4a.7.7,0,0,1,0,1.4h-8a.7.7,0,0,1,0-1.4Zm-4-12.6a5.607,5.607,0,0,1,0,11.2,5.607,5.607,0,0,1,0-11.2Z" transform="translate(-0.999 -10.794)" fill="#176e98 "/>
      <path id="Path-3" data-name="Path" d="M10,44.9a.677.677,0,0,1,.656.579.705.705,0,0,1-.429.779.652.652,0,0,1-.805-.308.652.652,0,0,0-1.168-.012.73.73,0,0,0,.014.712,2.023,2.023,0,0,0,1.067.91v.14a.667.667,0,1,0,1.333,0v-.129a2.109,2.109,0,0,0,1.3-2.332A2.026,2.026,0,0,0,10,43.5a.677.677,0,0,1-.656-.579.705.705,0,0,1,.429-.779.652.652,0,0,1,.805.308.652.652,0,0,0,1.168.012.73.73,0,0,0-.014-.712,2.023,2.023,0,0,0-1.065-.91V40.7a.667.667,0,1,0-1.333,0v.129a2.109,2.109,0,0,0-1.3,2.331A2.026,2.026,0,0,0,10,44.9Z" transform="translate(-3.333 -12)" fill="#176e98 " fill-rule="evenodd"/>
    </g>
  </g>
</svg>
