<svg xmlns="http://www.w3.org/2000/svg" xmlns:xlink="http://www.w3.org/1999/xlink" width="39" height="36" viewBox="0 0 39 36">
  <defs>
    <clipPath id="clip-path">
      <rect width="39" height="36" fill="none"/>
    </clipPath>
  </defs>
  <g id="gift" clip-path="url(#clip-path)">
    <path id="Path_1632" data-name="Path 1632" d="M327.439,178.86a.7.7,0,0,0-.879,0,.473.473,0,0,0,0,.746l.939.8a.7.7,0,0,0,.879,0,.473.473,0,0,0,0-.746Z" transform="translate(-301.047 -166.14)" fill="#176e98"/>
    <path id="Path_1633" data-name="Path 1633" d="M413.342,88.763a2.967,2.967,0,0,0-2.4-.549,5.044,5.044,0,0,0-2.473,1.147c-1.563,1.327-1.873,3.142-.7,4.133a2.759,2.759,0,0,0,1.809.6,4.864,4.864,0,0,0,3.062-1.2,3.893,3.893,0,0,0,1.352-2.1A2.014,2.014,0,0,0,413.342,88.763Zm-.577,1.851a2.916,2.916,0,0,1-1.006,1.536c-1.035.878-2.46,1.152-3.113.6s-.33-1.764.7-2.642a3.762,3.762,0,0,1,1.811-.854,2.578,2.578,0,0,1,.378-.029,1.421,1.421,0,0,1,.925.285A1.116,1.116,0,0,1,412.765,90.614Z" transform="translate(-375.043 -81.968)" fill="#176e98"/>
    <path id="Path_1634" data-name="Path 1634" d="M437.191,117.264l-.939.8a.473.473,0,0,0,0,.746.7.7,0,0,0,.879,0l.939-.8a.473.473,0,0,0,0-.746A.7.7,0,0,0,437.191,117.264Z" transform="translate(-401.65 -108.875)" fill="#176e98"/>
    <path id="Path_1635" data-name="Path 1635" d="M53.011,18.067V16.308a.58.58,0,0,0-.621-.527H49.945a3.084,3.084,0,0,0,1.073-2.291c0-1.845-1.769-3.346-3.942-3.346s-3.942,1.5-3.942,3.346a3.084,3.084,0,0,0,1.073,2.291H27.728L50.656,6.875a.5.5,0,0,0,.306-.7L48.474,1.564A1.218,1.218,0,0,0,47.754,1a1.488,1.488,0,0,0-.983.031L42.346,2.744,40.1.7a2.864,2.864,0,0,0-2.147-.7A2.7,2.7,0,0,0,35.99,1.02L33.328,4.543l-4.883-.593a2.9,2.9,0,0,0-2.186.6,2.025,2.025,0,0,0-.783,1.833l.353,2.775-4.424,1.718a1.178,1.178,0,0,0-.67.612.934.934,0,0,0,.036.834l2.488,4.612a.593.593,0,0,0,.348.275.722.722,0,0,0,.217.033l.048,0V34.908A1.2,1.2,0,0,0,25.158,36H51.725a1.2,1.2,0,0,0,1.286-1.091V23.686a4.35,4.35,0,0,0,1.478.274,2.757,2.757,0,0,0,1.807-.6c1.168-.991.859-2.807-.7-4.133A5.029,5.029,0,0,0,53.011,18.067ZM44.377,13.49a2.736,2.736,0,0,1,5.4,0,2.736,2.736,0,0,1-5.4,0ZM35.248,6.661l2.247,4.166-1.286.5L33.962,7.161Zm12.04-4.677a.046.046,0,0,1,.017,0l.015,0A.038.038,0,0,1,47.344,2l2.229,4.133L38.625,10.388,36.378,6.222Zm-10.251-.4a1.415,1.415,0,0,1,1.03-.531,1.5,1.5,0,0,1,1.126.365l1.962,1.783L37.2,4.742l1.585-1.352a.473.473,0,0,0,0-.746.7.7,0,0,0-.879,0L35.39,4.794l-.709-.086ZM26.712,6.272a1.062,1.062,0,0,1,.411-.962,1.522,1.522,0,0,1,1.147-.315l6.31.766-.389.151-5.548.332a.564.564,0,0,0-.576.563.589.589,0,0,0,.619.49h.044l2.242-.134L27.021,8.7ZM21.9,11.885a.03.03,0,0,1,0-.028.038.038,0,0,1,.022-.02L32.832,7.6l2.247,4.166L24.131,16.018Zm3.214,23.023V16.836H36.492V34.944H25.158A.04.04,0,0,1,25.115,34.908Zm26.653,0a.04.04,0,0,1-.043.036H40.392V19.69a.63.63,0,0,0-1.243,0V34.944H37.735V16.836h1.414v.6a.63.63,0,0,0,1.243,0v-.6H51.768V34.908Zm3.649-12.293a2.321,2.321,0,0,1-2.406-.12V21.319l.527.447a.7.7,0,0,0,.879,0,.473.473,0,0,0,0-.746l-.939-.8a.683.683,0,0,0-.467-.153v-.933a3.8,3.8,0,0,1,1.7.835C55.747,20.851,56.07,22.061,55.417,22.615Z" transform="translate(-20.654 0.001)" fill="#176e98"/>
  </g>
</svg>
