<svg xmlns="http://www.w3.org/2000/svg" width="32.295" height="32.577" viewBox="0 0 32.295 32.577">
  <path id="Path_1640" data-name="Path 1640" d="M17.409,8.78v6.981L22,20.394a1.28,1.28,0,0,1,0,1.8,1.254,1.254,0,0,1-1.784,0l-4.962-5.005a1.278,1.278,0,0,1-.369-.9V8.78a1.262,1.262,0,1,1,2.523,0ZM21.109,0H11.185A11.09,11.09,0,0,0,3.851,2.766V1.273a1.262,1.262,0,1,0-2.523,0V6.278A1.27,1.27,0,0,0,2.589,7.55H7.551a1.273,1.273,0,0,0,0-2.545H5.165a8.653,8.653,0,0,1,6.021-2.46h9.924a8.71,8.71,0,0,1,8.662,8.738V21.294a8.71,8.71,0,0,1-8.662,8.738H11.185a8.71,8.71,0,0,1-8.662-8.738V16.288a1.262,1.262,0,1,0-2.523,0v5.005A11.247,11.247,0,0,0,11.185,32.577h9.924A11.247,11.247,0,0,0,32.295,21.294V11.283A11.247,11.247,0,0,0,21.109,0Z" fill="  #FFFFFF"/>
</svg>
