<svg id="information_1_" data-name="information (1)" xmlns="http://www.w3.org/2000/svg" width="36" height="36" viewBox="0 0 36 36">
  <g id="Group_2597" data-name="Group 2597">
    <g id="Group_2596" data-name="Group 2596">
      <path id="Path_1784" data-name="Path 1784" d="M18,0A18,18,0,1,0,36,18,17.99,17.99,0,0,0,18,0Zm0,33.188A15.188,15.188,0,1,1,33.188,18,15.179,15.179,0,0,1,18,33.188Z" fill="#176e98"/>
    </g>
  </g>
  <g id="Group_2599" data-name="Group 2599" transform="translate(16.594 15.07)">
    <g id="Group_2598" data-name="Group 2598">
      <path id="Path_1785" data-name="Path 1785" d="M237.406,214.33A1.406,1.406,0,0,0,236,215.736v9.056a1.406,1.406,0,1,0,2.812,0v-9.056A1.406,1.406,0,0,0,237.406,214.33Z" transform="translate(-236 -214.33)" fill="#176e98"/>
    </g>
  </g>
  <g id="Group_2601" data-name="Group 2601" transform="translate(16.102 9.551)">
    <g id="Group_2600" data-name="Group 2600">
      <circle id="Ellipse_1128" data-name="Ellipse 1128" cx="1.898" cy="1.898" r="1.898" fill="#176e98"/>
    </g>
  </g>
</svg>
