<svg xmlns="http://www.w3.org/2000/svg" width="36" height="36.053" viewBox="0 0 36 36.053">
  <g id="Group_2547" data-name="Group 2547" transform="translate(-32.821 -531.453)">
    <g id="Group_2399" data-name="Group 2399" transform="translate(32.821 531.453)">
      <g id="Group_2398" data-name="Group 2398" transform="translate(0)">
        <path id="Path_1607" data-name="Path 1607" d="M78.547,30.409l-3.091-4.3a11.227,11.227,0,0,1-2.182-6.571V15.773c0-4.754-3.8-8.776-9-10.072V3c0-1.657-1.615-3-3.6-3s-3.6,1.347-3.6,3V5.7c-5.2,1.3-9,5.318-9,10.072v3.766a11.233,11.233,0,0,1-2.18,6.569l-3.091,4.3a.645.645,0,0,0-.011.757.94.94,0,0,0,.781.382h34.2a.946.946,0,0,0,.783-.38A.648.648,0,0,0,78.547,30.409Z" transform="translate(-42.675)" fill="#176e98"/>
      </g>
    </g>
    <g id="Group_2401" data-name="Group 2401" transform="translate(45.152 564.501)">
      <g id="Group_2400" data-name="Group 2400">
        <path id="Path_1608" data-name="Path 1608" d="M188.815,469.333a6.849,6.849,0,0,0,11.337,0Z" transform="translate(-188.815 -469.333)" fill="#176e98"/>
      </g>
    </g>
  </g>
</svg>
