<svg xmlns="http://www.w3.org/2000/svg" width="36" height="36" viewBox="0 0 36 36">
  <path id="Icon" d="M21.705,36H14.3a.9.9,0,0,1-.906-.757l-.7-4.769A13.745,13.745,0,0,1,9.566,28.71l-4.608,1.8a.887.887,0,0,1-.313.053.934.934,0,0,1-.814-.45l-3.7-6.227a.889.889,0,0,1,.223-1.152l3.9-2.969A14.2,14.2,0,0,1,4.126,18a13.9,13.9,0,0,1,.13-1.764l-3.9-2.971a.868.868,0,0,1-.223-1.152l3.7-6.227a.916.916,0,0,1,.794-.45,1.079,1.079,0,0,1,.333.053l4.608,1.8a14.248,14.248,0,0,1,3.128-1.762L13.4.757A.9.9,0,0,1,14.3,0h7.4a.9.9,0,0,1,.906.757l.7,4.771A13.719,13.719,0,0,1,26.442,7.29l4.608-1.8a.893.893,0,0,1,.315-.053.934.934,0,0,1,.814.45l3.7,6.227a.89.89,0,0,1-.221,1.152l-3.905,2.971A13.331,13.331,0,0,1,31.882,18a13.377,13.377,0,0,1-.13,1.764l3.905,2.969a.889.889,0,0,1,.221,1.152l-3.7,6.227a.918.918,0,0,1-.8.45,1.081,1.081,0,0,1-.333-.053l-4.608-1.8a14.227,14.227,0,0,1-3.126,1.764l-.7,4.769A.9.9,0,0,1,21.705,36ZM10.139,24.625h0l1.684,1.258A10.568,10.568,0,0,0,14.1,27.162l1.962.774.3,2.033.351,2.431H19.3l.371-2.431.3-2.033,1.96-.774a10.874,10.874,0,0,0,2.313-1.314l1.665-1.223,1.925.755,2.35.919,1.3-2.179-2-1.511-1.647-1.26.258-2.033A12.91,12.91,0,0,0,28.182,18a9.172,9.172,0,0,0-.093-1.314l-.258-2.035,1.647-1.26,1.978-1.529L30.162,9.684l-2.35.919-1.962.774-1.684-1.26A10.589,10.589,0,0,0,21.89,8.838l-1.962-.774-.3-2.033L19.28,3.6H16.709l-.37,2.43-.3,2.033-1.962.774a10.909,10.909,0,0,0-2.313,1.314L10.1,11.377,8.179,10.62,5.829,9.7l-1.3,2.179,2,1.511,1.647,1.26-.26,2.035c-.058.569-.092.967-.092,1.314,0,.37.04.8.092,1.332l.26,2.035L6.532,22.626l-2,1.513,1.3,2.177,2.35-.919,1.959-.772ZM18,25.2A7.311,7.311,0,0,1,10.6,18,7.312,7.312,0,0,1,18,10.8a7.311,7.311,0,0,1,7.4,7.2A7.31,7.31,0,0,1,18,25.2Zm0-10.8a3.6,3.6,0,1,0,3.7,3.6A3.655,3.655,0,0,0,18,14.4Z" fill="  #FFFFFF"/>
</svg>
